/* XPM */ 
static const unsigned char * process_error_xpm[] = {
"16 16 137 2",
"  	c None",
"! 	c black",
"# 	c #5070A8",
"$ 	c #8CB0DD",
"% 	c #7AA6DC",
"& 	c #79A5DC",
"' 	c #79A3DA",
"( 	c #78A1D8",
") 	c #759FD5",
"* 	c #749DD4",
"+ 	c #729CD2",
", 	c #7199CF",
"- 	c #6F98CE",
". 	c #6E95CB",
"0 	c #6B93C9",
"1 	c #7999C3",
"2 	c #84ABDD",
"3 	c #91B8E8",
"4 	c #6E8FC0",
"5 	c #658ABF",
"6 	c #79A3DB",
"7 	c white",
"8 	c #6286BC",
"9 	c #78A2D9",
": 	c #F9FBFC",
"; 	c #F8FBFC",
"< 	c #F7F9FB",
"= 	c #F4F7FB",
"> 	c #F2F7FA",
"? 	c #F0F5F9",
"@ 	c #EDF3F7",
"A 	c #EAEFF6",
"B 	c #E7EBF5",
"C 	c #E4EAF3",
"D 	c #DEE7F2",
"E 	c #5F84B9",
"F 	c #FAFDFD",
"G 	c #FAFCFC",
"H 	c #F6FAFB",
"I 	c #F5F8FB",
"J 	c #F1F6FB",
"K 	c #E9E2C4",
"L 	c #E1C87C",
"M 	c #E9EBEA",
"N 	c #E8ECF6",
"O 	c #5D80B6",
"P 	c #FCFDFD",
"Q 	c #FBFDFD",
"R 	c #F9FCFC",
"S 	c #F7FBFC",
"T 	c #F5F9FB",
"U 	c #F3F5F2",
"V 	c #E1C372",
"W 	c #EDDBAA",
"X 	c #E4D29F",
"Y 	c #ECF2F8",
"Z 	c #5B7DB4",
"[ 	c #FCFEFE",
"] 	c #F9FDFD",
"^ 	c #F8FCFC",
"_ 	c #E9D8A8",
"` 	c #EBD7A3",
"a 	c #FBF4DC",
"b 	c #D9B35B",
"c 	c #ECE6D7",
"d 	c #597BB1",
"e 	c #729BD1",
"f 	c #F5F0E1",
"g 	c #D9B45C",
"h 	c #F8EBB3",
"i 	c #F8E68D",
"j 	c #EEDDB4",
"k 	c #DDBE7E",
"l 	c #FEFDFB",
"m 	c #5779AF",
"n 	c #6E96CC",
"o 	c #FCFFFF",
"p 	c #FDFFFF",
"q 	c #E2C88B",
"r 	c #ECD9AB",
"s 	c #F8E381",
"t 	c #C18732",
"u 	c #FAEDAB",
"v 	c #CF9D43",
"w 	c #EFDEC0",
"x 	c #5374AB",
"y 	c #6D93CA",
"z 	c #FEFFFF",
"{ 	c #FDFEFE",
"| 	c #F0E5CB",
"} 	c #DFBC7A",
"~ 	c #F9EAA1",
" !	c #F6DC60",
"!!	c #C18630",
"#!	c #F7E176",
"$!	c #F0DEB5",
"%!	c #D3A459",
"&!	c #5874A3",
"'!	c #6B91C8",
"(!	c #D9B068",
")!	c #EFDBAA",
"*!	c #F7E073",
"+!	c #F5DA57",
",!	c #F5DB5C",
"-!	c #F8E68F",
".!	c #E1C091",
"0!	c #897D6D",
"1!	c #678DC2",
"2!	c #6387BD",
"3!	c #6084BA",
"4!	c #8C8B85",
"5!	c #E1C18D",
"6!	c #F9E896",
"7!	c #F5DB5A",
"8!	c #C18731",
"9!	c #F6DE69",
":!	c #F6E7B0",
";!	c #BA8133",
"<!	c #C99037",
"=!	c #F6ECDD",
">!	c #F9EEBC",
"?!	c #F8EAAB",
"@!	c #F8EAAA",
"A!	c #F8EAAC",
"B!	c #FBF3D4",
"C!	c #E4C8A3",
"D!	c #BD7A25",
"E!	c #C48931",
"F!	c #C3862F",
"G!	c #C2842E",
"H!	c #C1822C",
"I!	c #C0802A",
"J!	c #BF7E28",
"K!	c #BE7C27",
"L!	c #BC7824",
"M!	c #BC7622",
"N!	c #BB7521",
"                                ",
"# $ % & ' ( ) * + , - . 0 1 #   ",
"2 3 3 3 3 3 3 3 3 3 3 3 3 3 4   ",
"% % % % % % % % % % % % % % 5   ",
"6 7 7 7 7 7 7 7 7 7 7 7 7 7 8   ",
"9 7 : ; < = > ? @ A B C D 7 E   ",
"( 7 F G : H I = J K L M N 7 O   ",
") 7 P Q F R S T U V W X Y 7 Z   ",
"* 7 [ Q P Q ] ^ _ ` a b c 7 d   ",
"e 7 [ [ [ Q Q f g h i j k l m   ",
"n 7 o p [ [ Q q r s t u v w x   ",
"y 7 7 z p { | } ~  !!!#!$!%!&!  ",
"'!7 7 7 7 l (!)!*!+!+!,!-!.!0!  ",
"# 1!5 2!3!4!5!6! !7!8!7!9!:!;!  ",
"          <!=!>!?!@!@!@!A!B!C!D!",
"          E!F!G!H!I!J!K!D!L!M!N!"};